<svg width="56" height="56" viewBox="0 0 56 56" fill="none" xmlns="http://www.w3.org/2000/svg">
<g clip-path="url(#clip0_108_5310)">
<g filter="url(#filter0_d_108_5310)">
<rect width="56" height="56" rx="28" fill="#F7B100"/>
</g>
<path d="M28 38C33.5228 38 38 33.5228 38 28C38 22.4772 33.5228 18 28 18C22.4772 18 18 22.4772 18 28C18 33.5228 22.4772 38 28 38Z" stroke="white" stroke-width="2" stroke-linecap="round" stroke-linejoin="round"/>
<path d="M18 28H38" stroke="white" stroke-width="2" stroke-linecap="round" stroke-linejoin="round"/>
<path d="M28 18C30.5013 20.7384 31.9228 24.292 32 28C31.9228 31.708 30.5013 35.2616 28 38C25.4987 35.2616 24.0772 31.708 24 28C24.0772 24.292 25.4987 20.7384 28 18V18Z" stroke="white" stroke-width="2" stroke-linecap="round" stroke-linejoin="round"/>
</g>
<defs>
<filter id="filter0_d_108_5310" x="-25" y="-25" width="106" height="106" filterUnits="userSpaceOnUse" color-interpolation-filters="sRGB">
<feFlood flood-opacity="0" result="BackgroundImageFix"/>
<feColorMatrix in="SourceAlpha" type="matrix" values="0 0 0 0 0 0 0 0 0 0 0 0 0 0 0 0 0 0 127 0" result="hardAlpha"/>
<feOffset/>
<feGaussianBlur stdDeviation="12.5"/>
<feColorMatrix type="matrix" values="0 0 0 0 0 0 0 0 0 0 0 0 0 0 0 0 0 0 0.05 0"/>
<feBlend mode="normal" in2="BackgroundImageFix" result="effect1_dropShadow_108_5310"/>
<feBlend mode="normal" in="SourceGraphic" in2="effect1_dropShadow_108_5310" result="shape"/>
</filter>
<clipPath id="clip0_108_5310">
<rect width="56" height="56" fill="white"/>
</clipPath>
</defs>
</svg>
