<svg width="16" height="11" viewBox="0 0 16 11" fill="none" xmlns="http://www.w3.org/2000/svg">
<path fill-rule="evenodd" clip-rule="evenodd" d="M13.9396 4.65566C12.3337 3.12886 10.2025 2.27742 7.98661 2.27733C5.7705 2.27732 3.6391 3.12876 2.03295 4.65566C1.91209 4.77372 1.71864 4.77223 1.59961 4.65233L0.443279 3.48566C0.383014 3.42489 0.34945 3.34262 0.350013 3.25704C0.350576 3.17146 0.38522 3.08963 0.446279 3.02966C4.66138 -1.00989 11.3112 -1.00989 15.5263 3.02966C15.5873 3.08967 15.6219 3.17153 15.6224 3.25711C15.6229 3.34269 15.5893 3.42494 15.5289 3.48566L14.3729 4.65233C14.2538 4.77205 14.0605 4.77353 13.9396 4.65566ZM7.98666 6.07299C9.20415 6.07292 10.3782 6.52545 11.2807 7.34266C11.4027 7.45864 11.595 7.45612 11.714 7.33699L12.8687 6.17032C12.9295 6.10913 12.9632 6.02611 12.9623 5.93985C12.9615 5.85358 12.926 5.77127 12.864 5.71132C10.1158 3.15494 5.85986 3.15494 3.11166 5.71132C3.04958 5.77127 3.01417 5.85362 3.01335 5.93992C3.01254 6.02621 3.04639 6.10922 3.10733 6.17032L4.26166 7.33699C4.38065 7.45612 4.57293 7.45864 4.69499 7.34266C5.59687 6.52599 6.76998 6.07349 7.98666 6.07299ZM10.2056 8.85733C10.2674 8.79672 10.3014 8.71332 10.2996 8.62681C10.2978 8.54031 10.2605 8.45836 10.1963 8.40033C8.92071 7.32144 7.05252 7.32144 5.77695 8.40033C5.71272 8.45831 5.67528 8.54023 5.67345 8.62674C5.67162 8.71325 5.70557 8.79668 5.76728 8.85733L7.76495 10.873C7.8235 10.9322 7.90332 10.9656 7.98661 10.9656C8.0699 10.9656 8.14973 10.9322 8.20828 10.873L10.2056 8.85733Z" fill="#181A20"/>
</svg>
