<svg width="22" height="18" viewBox="0 0 22 18" fill="none" xmlns="http://www.w3.org/2000/svg">
<path d="M11 17.2501C11 17.2501 1.625 12.0001 1.625 5.62513C1.625 4.49815 2.01546 3.40598 2.72996 2.53443C3.44445 1.66289 4.43884 1.06582 5.54393 0.844799C6.64903 0.62378 7.79657 0.792468 8.79131 1.32216C9.78605 1.85186 10.5665 2.70984 11 3.75013V3.75013C11.4335 2.70984 12.2139 1.85186 13.2087 1.32216C14.2034 0.792468 15.351 0.62378 16.4561 0.844799C17.5612 1.06582 18.5555 1.66289 19.27 2.53443C19.9845 3.40598 20.375 4.49815 20.375 5.62513C20.375 12.0001 11 17.2501 11 17.2501Z" stroke="#9F9F9F" stroke-width="1.5" stroke-linecap="round" stroke-linejoin="round"/>
</svg>
